HIERARCHY
ROOT Hips
{
 OFFSET 0.000000 0.000000 0.000000
 CHANNELS 6 Xposition Yposition Zposition Yrotation Xrotation Zrotation
 JOINT Chest
 {
  OFFSET 0.000000 11.395451 -0.039534
  CHANNELS 3 Yrotation Xrotation Zrotation
  JOINT Chest2
  {
   OFFSET 0.000000 9.398669 0.071813
   CHANNELS 3 Yrotation Xrotation Zrotation
   JOINT Chest3
   {
    OFFSET 0.000000 8.489801 0.000000
    CHANNELS 3 Yrotation Xrotation Zrotation
    JOINT Chest4
    {
     OFFSET 0.000000 8.489801 0.000000
     CHANNELS 3 Yrotation Xrotation Zrotation
     JOINT Neck
     {
      OFFSET 0.000000 12.404889 0.000000
      CHANNELS 3 Yrotation Xrotation Zrotation
      JOINT Head
      {
       OFFSET 0.000000 8.903270 0.092239
       CHANNELS 3 Yrotation Xrotation Zrotation
       End Site
       {
        OFFSET 0.000000 17.592497 0.007158
       }
      }
     }
     JOINT RightCollar
     {
      OFFSET -3.196775 6.966722 0.000000
      CHANNELS 3 Yrotation Xrotation Zrotation
      JOINT RightShoulder
      {
       OFFSET -15.955896 0.000000 0.000000
       CHANNELS 3 Yrotation Xrotation Zrotation
       JOINT RightElbow
       {
        OFFSET -24.792472 0.000000 0.000000
        CHANNELS 3 Yrotation Xrotation Zrotation
        JOINT RightWrist
        {
         OFFSET -20.900115 0.000000 0.025002
         CHANNELS 3 Yrotation Xrotation Zrotation
         End Site
         {
          OFFSET -16.056692 0.000000 0.000000
         }
        }
       }
      }
     }
     JOINT LeftCollar
     {
      OFFSET 3.196775 6.966722 0.000000
      CHANNELS 3 Yrotation Xrotation Zrotation
      JOINT LeftShoulder
      {
       OFFSET 15.955896 0.000000 0.000000
       CHANNELS 3 Yrotation Xrotation Zrotation
       JOINT LeftElbow
       {
        OFFSET 24.792472 0.000000 0.000000
        CHANNELS 3 Yrotation Xrotation Zrotation
        JOINT LeftWrist
        {
         OFFSET 20.900115 0.000000 0.025002
         CHANNELS 3 Yrotation Xrotation Zrotation
         End Site
         {
          OFFSET 16.056692 0.000000 0.000000
         }
        }
       }
      }
     }
    }
   }
  }
 }
 JOINT RightHip
 {
  OFFSET -9.568995 0.193718 0.019767
  CHANNELS 3 Yrotation Xrotation Zrotation
  JOINT RightKnee
  {
   OFFSET 0.000000 -56.649296 0.015402
   CHANNELS 3 Yrotation Xrotation Zrotation
   JOINT RightAnkle
   {
    OFFSET 0.000000 -41.365147 0.021264
    CHANNELS 3 Yrotation Xrotation Zrotation
    JOINT RightToe
    {
     OFFSET 0.000000 -7.465940 17.672538
     CHANNELS 3 Yrotation Xrotation Zrotation
     End Site
     {
      OFFSET 0.000000 -1.736315 7.837145
     }
    }
   }
  }
 }
 JOINT LeftHip
 {
  OFFSET 9.568995 0.193718 0.019767
  CHANNELS 3 Yrotation Xrotation Zrotation
  JOINT LeftKnee
  {
   OFFSET 0.000000 -56.649296 0.015402
   CHANNELS 3 Yrotation Xrotation Zrotation
   JOINT LeftAnkle
   {
    OFFSET 0.000000 -41.365147 0.021264
    CHANNELS 3 Yrotation Xrotation Zrotation
    JOINT LeftToe
    {
     OFFSET 0.000000 -7.465940 17.672538
     CHANNELS 3 Yrotation Xrotation Zrotation
     End Site
     {
      OFFSET 0.000000 -1.736315 7.837145
     }
    }
   }
  }
 }
}
MOTION
Frames: 10
Frame Time: 0.016667
-127.397799 106.634540 332.429250 57.521593 -6.487510 -0.183004 -0.320242 3.373012 -0.140041 -0.141248 1.499213 -0.059884 -0.141248 1.499213 -0.059884 -0.105783 1.124423 -0.044564 1.962401 16.316061 -0.064920 3.670229 -5.858682 -0.825161 -2.053190 5.295229 12.174758 11.529425 -8.865986 74.498680 -1.808862 -11.142825 -6.992937 -3.192131 5.962694 2.386304 -5.835147 -0.756366 -10.392940 7.125251 -7.388239 -73.161666 1.474624 -5.874404 3.902019 6.453199 2.495572 -2.528089 -0.308546 10.084231 -1.198037 -1.247089 2.148686 0.398180 -4.257193 -7.355606 0.516272 0.000000 0.000000 0.000000 8.638612 8.124900 1.688064 -0.201917 8.405824 0.021063 9.666869 -9.362240 -1.474720 0.000000 0.000000 0.000000
-127.436291 106.634937 332.350999 57.818192 -6.503107 -0.192677 -0.361637 3.348349 -0.161444 -0.159490 1.488278 -0.069111 -0.159490 1.488277 -0.069111 -0.119442 1.116225 -0.051442 1.939812 16.375213 -0.032999 3.615506 -5.750440 -0.756015 -1.996966 5.326913 12.102861 11.445091 -8.829877 74.625481 -2.049268 -10.985174 -7.015220 -3.262552 6.040932 2.423859 -5.778005 -0.672873 -10.344731 7.003480 -7.358893 -73.198825 1.203845 -5.827996 3.815598 6.393913 2.482638 -2.552960 -0.067849 10.069787 -1.126541 -1.852060 2.144050 0.391424 -4.237720 -7.312346 0.468316 -0.000000 -0.000000 0.000000 8.326358 8.052156 1.615120 -0.157662 8.444675 0.060509 9.634292 -9.346236 -1.437135 0.000000 0.000000 0.000000
-127.474784 106.635333 332.272748 58.114804 -6.518655 -0.202430 -0.403014 3.323765 -0.182966 -0.177728 1.477386 -0.078396 -0.177727 1.477385 -0.078396 -0.133098 1.108061 -0.058364 1.917320 16.434299 -0.000915 3.561022 -5.642261 -0.686695 -1.940640 5.358863 12.031188 11.360989 -8.793985 74.752424 -2.289861 -10.827651 -7.037339 -3.332537 6.119469 2.461532 -5.720798 -0.589646 -10.296068 6.881719 -7.329462 -73.236005 0.933295 -5.781848 3.728345 6.334635 2.469722 -2.577850 0.172802 10.054780 -1.055121 -2.457041 2.139376 0.384236 -4.218242 -7.269131 0.420334 0.000000 -0.000000 -0.000000 8.014238 7.979278 1.542106 -0.113397 8.483472 0.100045 9.601703 -9.330217 -1.399578 0.000000 -0.000000 0.000000
-127.509193 106.635233 332.196541 58.398044 -6.538534 -0.212209 -0.442390 3.300377 -0.204295 -0.195080 1.467028 -0.087612 -0.195080 1.467028 -0.087612 -0.146092 1.100299 -0.065237 1.890492 16.493964 0.028157 3.499643 -5.532973 -0.621485 -1.889787 5.393540 11.962868 11.269223 -8.761280 74.863442 -2.457847 -10.694879 -7.049180 -3.380276 6.174726 2.482603 -5.668194 -0.510020 -10.250225 6.762596 -7.305486 -73.269666 0.659129 -5.720089 3.635185 6.277286 2.459675 -2.601507 0.350993 10.055666 -1.005921 -2.963280 2.127002 0.384808 -4.217190 -7.229062 0.378570 0.000000 -0.000000 0.000000 7.734358 7.921282 1.476386 -0.090973 8.512955 0.131827 9.569939 -9.318233 -1.357366 0.000000 0.000000 0.000000
-127.537632 106.634049 332.122739 58.666053 -6.567968 -0.220605 -0.480068 3.281270 -0.225908 -0.211676 1.458575 -0.096965 -0.211677 1.458575 -0.096965 -0.158518 1.093965 -0.072215 1.859210 16.555089 0.053377 3.431419 -5.420921 -0.561885 -1.845815 5.433271 11.899075 11.162205 -8.733099 74.950629 -2.514910 -10.600486 -7.043727 -3.395833 6.194681 2.480741 -5.623370 -0.435078 -10.208264 6.644644 -7.290891 -73.298524 0.375951 -5.632988 3.531366 6.224025 2.456276 -2.625182 0.438473 10.086949 -0.992698 -3.324231 2.100481 0.399597 -4.247131 -7.191920 0.348510 0.000000 -0.000000 -0.000000 7.506211 7.886711 1.421594 -0.105821 8.533092 0.149993 9.535054 -9.315277 -1.305205 0.000000 -0.000000 0.000000
-127.561988 106.632368 332.050982 58.920702 -6.601747 -0.229097 -0.515744 3.263349 -0.247295 -0.227385 1.450651 -0.106235 -0.227385 1.450651 -0.106235 -0.170278 1.088028 -0.079132 1.823578 16.616847 0.075528 3.356288 -5.307654 -0.506511 -1.807325 5.475649 11.838624 11.047402 -8.707778 75.021845 -2.499068 -10.530731 -7.028219 -3.389647 6.191059 2.462133 -5.583170 -0.363646 -10.169254 6.529349 -7.281777 -73.323925 0.089064 -5.530455 3.421436 6.172682 2.455735 -2.647598 0.463565 10.134737 -1.001362 -3.586462 2.066470 0.422597 -4.295491 -7.157881 0.324647 0.000000 0.000000 -0.000000 7.310202 7.867150 1.374024 -0.142523 8.543993 0.160283 9.500970 -9.316338 -1.248376 -0.000000 -0.000000 0.000000
-127.583837 106.631454 331.982233 59.154199 -6.628575 -0.241896 -0.546529 3.238455 -0.266685 -0.240940 1.439626 -0.114663 -0.240940 1.439626 -0.114663 -0.180426 1.079765 -0.085425 1.779466 16.677361 0.093814 3.266919 -5.196718 -0.455436 -1.775674 5.516002 11.781087 10.939444 -8.683733 75.084612 -2.451952 -10.469073 -7.013935 -3.370690 6.175761 2.428827 -5.542784 -0.295639 -10.133517 6.423777 -7.271942 -73.346307 -0.189327 -5.426026 3.314280 6.118656 2.449604 -2.663648 0.448745 10.173013 -1.012313 -3.790882 2.037016 0.443440 -4.342985 -7.130653 0.296732 0.000000 -0.000000 0.000000 7.119771 7.852201 1.330045 -0.176689 8.536623 0.172232 9.480338 -9.310491 -1.198051 -0.000000 0.000000 0.000000
-127.602094 106.631975 331.915920 59.374122 -6.644237 -0.260681 -0.575522 3.202157 -0.283087 -0.253730 1.423531 -0.121793 -0.253730 1.423531 -0.121793 -0.190003 1.067699 -0.090749 1.723052 16.737557 0.107790 3.156361 -5.086445 -0.408123 -1.753830 5.552149 11.725207 10.836909 -8.656640 75.141048 -2.378327 -10.410050 -7.005398 -3.335635 6.147301 2.373788 -5.499756 -0.232655 -10.103741 6.331080 -7.258392 -73.365023 -0.456279 -5.319697 3.211217 6.056575 2.431395 -2.668128 0.372688 10.194747 -1.024557 -3.928601 2.014429 0.460201 -4.388293 -7.113678 0.258775 0.000000 0.000000 0.000000 6.925102 7.839785 1.287382 -0.209989 8.502828 0.190747 9.478052 -9.290743 -1.159871 0.000000 0.000000 0.000000
-127.617843 106.633263 331.852615 59.572878 -6.652906 -0.283654 -0.599638 3.158861 -0.297536 -0.264375 1.404321 -0.128103 -0.264375 1.404321 -0.128103 -0.197976 1.053296 -0.095465 1.658111 16.796571 0.117749 3.031528 -4.978358 -0.365399 -1.738808 5.586215 11.672156 10.741166 -8.630804 75.188934 -2.273459 -10.359250 -6.998070 -3.287886 6.107357 2.303841 -5.456570 -0.173034 -10.077284 6.248114 -7.244120 -73.380738 -0.714725 -5.211414 3.110910 5.991756 2.407774 -2.666098 0.256692 10.206940 -1.039341 -4.008488 1.996272 0.474786 -4.432734 -7.103532 0.216787 0.000000 -0.000000 0.000000 6.735986 7.831996 1.248420 -0.240807 8.450773 0.210961 9.489247 -9.264118 -1.128169 0.000000 0.000000 0.000000
-127.635912 106.634573 331.795002 59.719914 -6.655877 -0.309734 -0.606722 3.113653 -0.311273 -0.267462 1.384251 -0.134219 -0.267462 1.384251 -0.134219 -0.200283 1.038248 -0.100054 1.591908 16.849838 0.123995 2.905851 -4.880793 -0.329364 -1.723042 5.619966 11.625137 10.671002 -8.617763 75.229286 -2.164780 -10.316610 -6.989585 -3.246450 6.072476 2.242010 -5.415813 -0.111852 -10.046445 6.172496 -7.231900 -73.395822 -0.961237 -5.114475 3.018574 5.935664 2.389939 -2.667926 0.187175 10.204488 -1.040489 -4.098056 1.987501 0.482495 -4.460985 -7.093638 0.178527 0.000000 0.000000 0.000000 6.555301 7.824663 1.216557 -0.239798 8.395835 0.227796 9.511935 -9.240725 -1.097147 0.000000 -0.000000 -0.000000
